<?xml version="1.0" standalone="no"?>
<!DOCTYPE svg PUBLIC "-//W3C//DTD SVG 20010904//EN"
 "http://www.w3.org/TR/2001/REC-SVG-20010904/DTD/svg10.dtd">
<svg version="1.0" xmlns="http://www.w3.org/2000/svg"
 width="512.000000pt" height="512.000000pt" viewBox="0 0 512.000000 512.000000"
 preserveAspectRatio="xMidYMid meet">
<metadata>
Created by potrace 1.14, written by Peter Selinger 2001-2017
</metadata>
<g transform="translate(0.000000,512.000000) scale(0.100000,-0.100000)"
fill="#000000" stroke="none">
<path d="M865 5109 c-33 -5 -91 -18 -130 -30 -316 -95 -562 -327 -675 -638
-62 -170 -60 -97 -60 -1872 0 -1106 3 -1642 11 -1695 60 -430 404 -784 836
-859 73 -13 315 -15 1704 -15 1106 0 1642 3 1695 11 430 60 784 404 859 836
13 73 15 315 15 1704 0 1106 -3 1642 -11 1695 -60 430 -404 784 -836 859 -74
13 -308 15 -1717 14 -897 -1 -1658 -5 -1691 -10z m2004 -484 c178 -29 250 -46
411 -98 171 -55 401 -167 516 -251 23 -17 54 -40 70 -51 110 -80 204 -167 292
-270 42 -49 79 -92 83 -95 3 -3 33 -45 66 -95 213 -320 334 -703 333 -1059 -1
-118 -13 -300 -24 -351 -24 -114 -38 -186 -41 -220 -2 -23 -12 -72 -21 -110
-9 -39 -18 -79 -20 -89 -22 -114 -141 -391 -225 -526 -121 -194 -319 -413
-487 -539 -260 -195 -561 -316 -932 -375 -100 -15 -547 -14 -625 2 -27 5 -81
15 -120 22 -65 11 -219 55 -340 95 -115 39 -455 223 -455 247 0 4 -5 8 -11 8
-35 0 -245 198 -366 345 -59 71 -133 180 -133 194 0 6 -4 11 -9 11 -8 0 -106
193 -150 295 -25 59 -61 178 -89 292 -12 45 -28 96 -37 113 -21 41 -42 107
-61 190 -29 130 -13 570 26 720 62 243 87 312 170 475 124 243 283 439 525
650 228 199 628 392 920 445 33 6 94 17 135 24 109 20 477 20 599 1z"/>
<path d="M2403 3095 c-157 -47 -306 -157 -379 -282 -47 -80 -59 -114 -74 -205
l-12 -69 41 -52 c100 -128 229 -218 387 -269 58 -18 92 -22 209 -22 132 0 146
2 240 33 147 49 248 115 339 220 52 62 54 73 31 183 -39 183 -165 341 -337
422 -150 71 -297 84 -445 41z"/>
</g>
</svg>
