<svg width="18" height="11" viewBox="0 0 18 11" fill="none" xmlns="http://www.w3.org/2000/svg">
    <path 
        d="M17.2071 2.45711C17.5976 2.06658 17.5976 1.43342 17.2071 1.04289C16.8166 0.652369 16.1834 0.652369 15.7929 1.04289L17.2071 2.45711ZM9 9.25L8.29289 9.95711C8.68342 10.3476 9.31658 10.3476 9.70711 9.95711L9 9.25ZM2.20711 1.04289C1.81658 0.652369 1.18342 0.652369 0.792893 1.04289C0.402368 1.43342 0.402368 2.06658 0.792893 2.45711L2.20711 1.04289ZM15.7929 1.04289L8.29289 8.54289L9.70711 9.95711L17.2071 2.45711L15.7929 1.04289ZM9.70711 8.54289L2.20711 1.04289L0.792893 2.45711L8.29289 9.95711L9.70711 8.54289Z" 
        fill="#EAB308"
    />
</svg>