<svg width="20" height="21" viewBox="0 0 20 21" fill="none" xmlns="http://www.w3.org/2000/svg">
<path d="M1.75 15C1.75 14.5858 1.41421 14.25 1 14.25C0.585786 14.25 0.25 14.5858 0.25 15H1.75ZM19.75 15C19.75 14.5858 19.4142 14.25 19 14.25C18.5858 14.25 18.25 14.5858 18.25 15H19.75ZM4.96967 5.46967C4.67678 5.76256 4.67678 6.23744 4.96967 6.53033C5.26256 6.82322 5.73744 6.82322 6.03033 6.53033L4.96967 5.46967ZM10 1.5L10.5303 0.96967C10.2374 0.676777 9.76256 0.676777 9.46967 0.96967L10 1.5ZM13.9697 6.53033C14.2626 6.82322 14.7374 6.82322 15.0303 6.53033C15.3232 6.23744 15.3232 5.76256 15.0303 5.46967L13.9697 6.53033ZM9.25 15C9.25 15.4142 9.58579 15.75 10 15.75C10.4142 15.75 10.75 15.4142 10.75 15H9.25ZM16.75 18.75H3.25V20.25H16.75V18.75ZM1.75 17.25V15H0.25V17.25H1.75ZM18.25 15V17.25H19.75V15H18.25ZM3.25 18.75C2.42157 18.75 1.75 18.0784 1.75 17.25H0.25C0.25 18.9069 1.59315 20.25 3.25 20.25V18.75ZM16.75 20.25C18.4069 20.25 19.75 18.9069 19.75 17.25H18.25C18.25 18.0784 17.5784 18.75 16.75 18.75V20.25ZM6.03033 6.53033L10.5303 2.03033L9.46967 0.96967L4.96967 5.46967L6.03033 6.53033ZM9.46967 2.03033L13.9697 6.53033L15.0303 5.46967L10.5303 0.96967L9.46967 2.03033ZM10.75 15L10.75 1.5L9.25 1.5L9.25 15H10.75Z" fill="#FAFAFA"/>
</svg>
