<svg width="17" height="17" viewBox="0 0 17 17" fill="none" xmlns="http://www.w3.org/2000/svg">
<path d="M15.8925 1.10748C15.0825 0.297506 13.7693 0.297506 12.9593 1.10748L12.045 2.02177L14.9782 4.95496L15.8925 4.04067C16.7025 3.23069 16.7025 1.91746 15.8925 1.10748Z" fill="#FAFAFA"/>
<path d="M14.1402 5.79301L11.207 2.85982L4.56929 9.49753C4.08195 9.98487 3.72372 10.586 3.52696 11.2465L2.89503 13.3679C2.83292 13.5764 2.89008 13.8022 3.04394 13.9561C3.1978 14.1099 3.42361 14.1671 3.63214 14.105L5.75354 13.473C6.41406 13.2763 7.01514 12.918 7.50248 12.4307L14.1402 5.79301Z" fill="#FAFAFA"/>
<path d="M2.87037 3.46296C1.56125 3.46296 0.5 4.52421 0.5 5.83333V14.1296C0.5 15.4387 1.56125 16.5 2.87037 16.5H11.1667C12.4758 16.5 13.537 15.4387 13.537 14.1296V9.98148C13.537 9.6542 13.2717 9.38888 12.9444 9.38888C12.6172 9.38888 12.3519 9.6542 12.3519 9.98148V14.1296C12.3519 14.7842 11.8212 15.3148 11.1667 15.3148H2.87037C2.21581 15.3148 1.68519 14.7842 1.68519 14.1296V5.83333C1.68519 5.17877 2.21581 4.64814 2.87037 4.64814H7.01852C7.3458 4.64814 7.61111 4.38283 7.61111 4.05555C7.61111 3.72827 7.3458 3.46296 7.01852 3.46296H2.87037Z" fill="#FAFAFA"/>
</svg>
